<svg width="44" height="44" viewBox="0 0 44 44" fill="none" xmlns="http://www.w3.org/2000/svg">
<path fill-rule="evenodd" clip-rule="evenodd" d="M38.1241 23.9763C38.4404 23.4661 38.7274 22.9382 38.9851 22.3986C39.7231 20.8444 40.0979 19.2256 40.1096 17.5893C40.1155 15.4779 39.4829 13.4368 38.2705 11.6949C36.2381 8.76824 32.8762 6.95007 29.4966 6.95007C27.804 6.95007 26.1288 7.35476 24.6412 8.12309L23.95 8.48085L24.4654 9.06149C24.5018 9.10574 24.5371 9.14652 24.5706 9.18537C24.6127 9.23408 24.6522 9.27975 24.688 9.32542L24.8169 9.47791C24.9164 9.60108 25.016 9.73011 25.1214 9.87087L25.1917 9.95885C25.303 10.1113 25.4143 10.2697 25.5256 10.4339L25.6193 10.5805C25.6706 10.6649 25.7219 10.747 25.7717 10.8268L25.7718 10.8269L25.7718 10.827C25.8016 10.8747 25.8309 10.9216 25.8594 10.9676L25.9473 11.1201C26.0644 11.3254 26.1581 11.4896 26.2401 11.648C26.5974 12.3401 26.902 13.0732 27.1304 13.8298C27.1714 13.9647 27.2124 14.1113 27.2534 14.2638L27.3061 14.4691L27.5638 14.6626L27.6044 14.6924C27.6769 14.7454 27.7446 14.7949 27.804 14.8444C27.827 14.8633 27.85 14.8814 27.8727 14.8993L27.8731 14.8996C27.9139 14.9317 27.9538 14.9631 27.9914 14.9969C28.0968 15.0849 28.173 15.1494 28.2432 15.2139C28.287 15.2498 28.3308 15.2911 28.3765 15.3342L28.3765 15.3342C28.398 15.3545 28.4199 15.3751 28.4424 15.3958L28.4541 15.4075C28.5302 15.4778 28.5946 15.5423 28.6531 15.6009L28.6531 15.6009L28.6532 15.601L28.6532 15.601C28.7177 15.6656 28.7821 15.7359 28.8465 15.8063L28.8524 15.8122C28.9051 15.865 28.9754 15.9412 29.0398 16.0175C29.0984 16.082 29.1569 16.1524 29.2214 16.2345C29.2799 16.3048 29.3385 16.3811 29.3912 16.4515C29.4498 16.5336 29.5025 16.6039 29.5552 16.6743L29.5552 16.6743C29.6196 16.7623 29.6724 16.8386 29.7192 16.9089C29.7501 16.9553 29.7777 16.9984 29.8037 17.0391L29.8039 17.0393L29.8039 17.0393C29.8273 17.0758 29.8494 17.1103 29.8715 17.1435C29.9125 17.2081 29.9594 17.2843 30.0179 17.384C30.0481 17.4343 30.0744 17.4828 30.0991 17.5282C30.1176 17.5621 30.1351 17.5944 30.1526 17.6245C30.2054 17.7183 30.2522 17.8063 30.2874 17.8825C30.3342 17.9705 30.3693 18.0468 30.4045 18.123L30.4045 18.123C30.4174 18.1525 30.4308 18.1825 30.4441 18.2122L30.4441 18.2123C30.4732 18.2772 30.5015 18.3405 30.5216 18.3928C30.5412 18.4451 30.5608 18.4918 30.5793 18.5362L30.5793 18.5363C30.5941 18.5716 30.6082 18.6054 30.6212 18.6391C30.6482 18.7067 30.6717 18.7742 30.6971 18.847L30.6971 18.8471L30.7208 18.9148L30.7442 18.9852C30.7676 19.0438 30.7911 19.1025 30.8086 19.167C30.8326 19.2343 30.8527 19.3056 30.8721 19.3743L30.8848 19.4192L30.9199 19.5365C30.9375 19.5951 30.9551 19.6538 30.9668 19.7124C30.9731 19.7398 30.9794 19.7686 30.9859 19.7987L30.9859 19.7988L30.986 19.7988C30.9977 19.8526 31.0103 19.9103 31.0253 19.9705L31.0546 20.0995V20.1054L31.0898 20.2638C31.0991 20.3135 31.1067 20.3665 31.1145 20.4201L31.1145 20.4202C31.1214 20.4678 31.1284 20.516 31.1366 20.5629L31.1542 20.6743C31.1647 20.7166 31.1706 20.7636 31.1759 20.8069L31.1776 20.8209C31.1912 20.9023 31.1977 20.9837 31.2054 21.0784L31.2054 21.0788C31.2077 21.1069 31.2101 21.1362 31.2128 21.167L31.2245 21.2901C31.2303 21.3253 31.2362 21.3605 31.2362 21.3957C31.2479 21.5893 31.2538 21.7887 31.2538 21.9764C31.2538 23.5071 30.8613 25.0321 30.1116 26.381C29.3619 27.73 28.2842 28.8737 26.9898 29.6889L25.1214 30.8678L27.3295 30.8091C27.3998 30.8091 27.4643 30.8091 27.5345 30.8033L27.804 30.7857C27.8918 30.7798 27.9855 30.7739 28.0851 30.7681L28.3721 30.7388C28.416 30.7329 28.4599 30.7285 28.5039 30.7241C28.5478 30.7197 28.5917 30.7153 28.6357 30.7094L28.9402 30.6625C29.0164 30.6508 29.0984 30.639 29.1804 30.6273L29.5142 30.5628L29.544 30.5574L29.5441 30.5574C29.6001 30.5474 29.6596 30.5367 29.7192 30.5217L30.0824 30.4396C30.1409 30.4279 30.1995 30.4162 30.2581 30.3986L30.5568 30.3165H30.5626C30.6036 30.3028 30.6446 30.2911 30.6867 30.2791L30.687 30.279C30.717 30.2705 30.7477 30.2617 30.7793 30.252L31.1015 30.1464C31.1337 30.1347 31.1659 30.1244 31.1981 30.1141C31.2303 30.1039 31.2625 30.0936 31.2948 30.0819C31.3592 30.0584 31.4177 30.035 31.4763 30.0115L31.4763 30.0115L31.6169 29.9587L31.617 29.9587C31.6814 29.9352 31.7458 29.9118 31.816 29.8825L32.1265 29.7534C32.1587 29.7388 32.1895 29.7255 32.2202 29.7123L32.2203 29.7123C32.251 29.6991 32.2817 29.686 32.3139 29.6713L32.6536 29.513C32.7063 29.4895 32.7532 29.466 32.8 29.4426C32.8645 29.4133 32.923 29.3839 32.9757 29.3546L33.1163 29.2784C33.1455 29.2637 33.1747 29.2476 33.2039 29.2316L33.204 29.2315L33.2042 29.2314C33.2334 29.2153 33.2627 29.1992 33.292 29.1845C33.3252 29.1679 33.3584 29.1483 33.3895 29.13L33.3902 29.1296C33.4028 29.1222 33.415 29.115 33.4267 29.1083L33.7664 28.9089L33.7782 28.903C33.8309 28.8678 33.8836 28.8326 33.9421 28.7974L34.0769 28.7094C34.1061 28.6919 34.134 28.6728 34.1618 28.6537L34.1619 28.6537C34.1897 28.6346 34.2175 28.6156 34.2467 28.598C34.7856 28.2344 35.2541 27.8356 35.6583 27.3253C35.7854 27.1661 35.9136 27.0079 36.0417 26.8496C36.3621 26.454 36.6824 26.0584 36.9878 25.6479C37.392 25.1083 37.7727 24.5511 38.1241 23.9763ZM32.6886 15.8415C33.6105 15.8415 34.3578 15.0931 34.3578 14.1699C34.3578 13.2468 33.6105 12.4984 32.6886 12.4984C31.7667 12.4984 31.0193 13.2468 31.0193 14.1699C31.0193 15.0931 31.7667 15.8415 32.6886 15.8415ZM24.549 37.9649L24.5767 37.941L30.4982 32.8091L28.7586 32.8854C25.1155 33.0496 21.9586 32.4572 19.3815 31.1376C15.6681 29.2373 13.2199 25.6655 13.1379 22.035C13.0793 19.2667 14.4147 16.4867 16.6287 14.7741C18.4795 13.3488 20.8985 12.6685 23.2647 12.9207L24.5064 13.0497L23.8387 11.994C22.2222 9.43685 19.5103 7.68906 16.4002 7.20226C15.8204 7.11429 15.2288 7.06737 14.649 7.06737C11.9957 7.06737 9.48892 8.02924 7.59124 9.77702C5.09028 12.082 3.83687 15.6128 4.323 18.9852C4.651 21.2843 5.77555 23.6538 7.76109 26.2344C9.95015 29.0852 12.6311 31.5767 15.223 33.9855L15.2698 34.029L15.2757 34.0349C16.822 35.4719 18.4209 36.9557 20.219 38.1229C20.7872 38.4924 21.6423 38.9792 22.5033 38.9792C22.6849 38.9792 22.8664 38.9616 23.0363 38.9146C23.6275 38.7594 24.095 38.3563 24.549 37.9649Z" fill="url(#paint0_linear_47_28)"/>
<path d="M21.9115 17.2256C20.0724 17.2256 18.4324 18.3927 17.835 20.1288C17.6768 20.5804 17.6007 21.0613 17.6007 21.5423C17.6007 21.8062 17.8174 22.0232 18.081 22.0232C18.3446 22.0232 18.5613 21.8062 18.5613 21.5423C18.5613 21.1669 18.6257 20.7974 18.7428 20.4455C19.2114 19.0965 20.4824 18.1875 21.9115 18.1875C22.1751 18.1875 22.3918 17.9704 22.3918 17.7065C22.3918 17.4426 22.1809 17.2256 21.9115 17.2256Z" fill="white"/>
<path fill-rule="evenodd" clip-rule="evenodd" d="M26.9722 17.1494C28.29 18.3459 28.987 20.0116 28.987 21.9646C28.987 24.4104 27.6692 26.686 25.5548 27.9059L25.5489 27.9118C24.5181 28.5042 23.3408 28.815 22.1518 28.815C21.0038 28.815 19.8383 28.4866 18.7723 27.8649C16.3943 26.4749 15.0238 23.7476 15.3693 21.079C15.6036 19.2667 16.4529 17.7711 17.8234 16.7506C19.0124 15.865 20.547 15.3782 22.1401 15.3782C22.3041 15.3782 22.4739 15.384 22.6321 15.3958C24.2955 15.4955 25.8417 16.123 26.9722 17.1494ZM17.835 20.1288C18.4324 18.3927 20.0724 17.2256 21.9115 17.2256C22.1809 17.2256 22.3918 17.4426 22.3918 17.7065C22.3918 17.9704 22.1751 18.1874 21.9115 18.1874C20.4824 18.1874 19.2114 19.0965 18.7428 20.4455C18.6257 20.7974 18.5613 21.1669 18.5613 21.5423C18.5613 21.8062 18.3446 22.0232 18.081 22.0232C17.8174 22.0232 17.6007 21.8062 17.6007 21.5423C17.6007 21.0613 17.6769 20.5804 17.835 20.1288Z" fill="#3A35A6"/>
<defs>
<linearGradient id="paint0_linear_47_28" x1="33.8809" y1="-26.791" x2="68.9566" y2="1.64964" gradientUnits="userSpaceOnUse">
<stop stop-color="#6892E7"/>
<stop offset="0.699734" stop-color="#BA67E7"/>
<stop offset="1" stop-color="#EC9E7C"/>
</linearGradient>
</defs>
</svg>
